<svg width="305" height="407" viewBox="0 0 305 407" fill="none" xmlns="http://www.w3.org/2000/svg">
<g filter="url(#filter0_d_158_107)">
<path d="M152.024 0L96.5239 61.5H189.524H208.524L152.024 0Z" fill="url(#paint0_linear_158_107)"/>
<path d="M213.241 132.972C171.46 126.843 128.758 50.5454 152.524 0L191.725 60.3949C197.117 93.6275 205.592 121.009 213.241 132.972Z" fill="url(#paint1_linear_158_107)"/>
<path d="M92.2107 132.969C133.881 126.917 176.333 50.6358 152.524 0L113.534 60.3708C108.219 93.6218 99.8181 121.01 92.2107 132.969Z" fill="url(#paint2_linear_158_107)"/>
</g>
<path d="M202.992 245.322C183.493 245.322 198.492 292.322 198.492 297.322C190.492 293.322 181.492 281.822 179.492 252.822C179.492 225.208 223.492 138.822 232.992 186.822C260.606 186.822 202.992 217.708 202.992 245.322Z" fill="#603620"/>
<path d="M303.992 138.822C303.992 173.322 185.992 210.322 198.491 296.322C172.992 291.633 207.492 198.322 207.492 163.322C204.492 135.322 202.993 153.322 231.492 158.322C298.992 162.322 303.992 121.822 303.992 138.822Z" fill="url(#paint3_linear_158_107)"/>
<g filter="url(#filter1_d_158_107)">
<ellipse cx="247.992" cy="127.133" rx="21" ry="21.5" fill="url(#paint4_linear_158_107)"/>
</g>
<path d="M101.992 245.511C121.491 245.511 106.492 292.511 106.492 297.511C114.492 293.511 123.492 282.011 125.492 253.011C125.492 225.397 81.4922 139.011 71.9922 187.011C44.378 187.011 101.992 217.897 101.992 245.511Z" fill="#63703D"/>
<path d="M0.99221 139.011C0.99221 173.511 118.991 210.511 106.493 296.511C135.492 289.133 97.4918 198.511 97.4917 163.511C100.492 135.511 101.991 153.511 73.4918 158.511C5.99176 162.511 0.99221 122.011 0.99221 139.011Z" fill="url(#paint5_linear_158_107)"/>
<g filter="url(#filter2_d_158_107)">
<ellipse cx="62.4922" cy="131.633" rx="19.5" ry="20" fill="url(#paint6_linear_158_107)"/>
</g>
<path d="M110.789 140.822C78.7892 188.822 188.289 333.322 219.289 328.322C190.789 302.322 171.289 268.936 171.289 241.322C171.289 213.708 178.403 178.322 150.789 178.322C145.289 175.822 136.289 173.322 110.789 140.822Z" fill="url(#paint7_linear_158_107)"/>
<path d="M110.789 140.822C78.7892 188.822 188.289 333.322 219.289 328.322C190.789 302.322 171.289 268.936 171.289 241.322C171.289 213.708 178.403 178.322 150.789 178.322C145.289 175.822 136.289 173.322 110.789 140.822Z" fill="url(#paint8_linear_158_107)"/>
<path d="M194.992 140.822C226.992 188.822 117.492 333.322 86.492 328.322C114.992 302.322 134.492 268.936 134.492 241.322C134.492 213.708 127.378 178.322 154.992 178.322C160.492 175.822 169.492 173.322 194.992 140.822Z" fill="url(#paint9_linear_158_107)"/>
<path d="M194.992 140.822C226.992 188.822 117.492 333.322 86.492 328.322C114.992 302.322 134.492 268.936 134.492 241.322C134.492 213.708 127.378 178.322 154.992 178.322C160.492 175.822 169.492 173.322 194.992 140.822Z" fill="url(#paint10_linear_158_107)"/>
<g filter="url(#filter3_d_158_107)">
<ellipse cx="152.992" cy="137.133" rx="22" ry="21.5" fill="url(#paint11_linear_158_107)"/>
</g>
<path d="M10.944 394.448C10.592 394.448 10.304 394.336 10.08 394.112C9.856 393.888 9.744 393.6 9.744 393.248V368.384H1.2C0.848004 368.384 0.560004 368.272 0.336004 368.048C0.112004 367.792 4.47035e-06 367.504 4.47035e-06 367.184V362.048C4.47035e-06 361.696 0.112004 361.408 0.336004 361.184C0.560004 360.96 0.848004 360.848 1.2 360.848H27.024C27.376 360.848 27.664 360.96 27.888 361.184C28.112 361.408 28.224 361.696 28.224 362.048V367.184C28.224 367.504 28.112 367.792 27.888 368.048C27.664 368.272 27.376 368.384 27.024 368.384H18.48V393.248C18.48 393.6 18.368 393.888 18.144 394.112C17.92 394.336 17.632 394.448 17.28 394.448H10.944ZM33.7864 394.448C33.4344 394.448 33.1464 394.336 32.9224 394.112C32.6984 393.888 32.5864 393.6 32.5864 393.248V362.048C32.5864 361.696 32.6984 361.408 32.9224 361.184C33.1464 360.96 33.4344 360.848 33.7864 360.848H56.2024C56.5544 360.848 56.8424 360.96 57.0664 361.184C57.2904 361.408 57.4024 361.696 57.4024 362.048V366.56C57.4024 366.912 57.2904 367.2 57.0664 367.424C56.8424 367.648 56.5544 367.76 56.2024 367.76H40.8904V374.24H55.1464C55.4984 374.24 55.7864 374.368 56.0104 374.624C56.2344 374.848 56.3464 375.136 56.3464 375.488V379.664C56.3464 379.984 56.2344 380.272 56.0104 380.528C55.7864 380.752 55.4984 380.864 55.1464 380.864H40.8904V387.536H56.5864C56.9384 387.536 57.2264 387.648 57.4504 387.872C57.6744 388.096 57.7864 388.384 57.7864 388.736V393.248C57.7864 393.6 57.6744 393.888 57.4504 394.112C57.2264 394.336 56.9384 394.448 56.5864 394.448H33.7864ZM61.3226 394.448C61.0666 394.448 60.8266 394.352 60.6026 394.16C60.4106 393.936 60.3146 393.696 60.3146 393.44C60.3146 393.28 60.3306 393.136 60.3626 393.008L71.6426 362.192C71.7386 361.84 71.9306 361.536 72.2186 361.28C72.5386 360.992 72.9706 360.848 73.5146 360.848H80.6186C81.1626 360.848 81.5786 360.992 81.8666 361.28C82.1866 361.536 82.3946 361.84 82.4906 362.192L93.7226 393.008C93.7866 393.136 93.8186 393.28 93.8186 393.44C93.8186 393.696 93.7066 393.936 93.4826 394.16C93.2906 394.352 93.0506 394.448 92.7626 394.448H86.8586C86.3786 394.448 86.0106 394.336 85.7546 394.112C85.5306 393.856 85.3866 393.632 85.3226 393.44L83.4506 388.544H70.6346L68.8106 393.44C68.7466 393.632 68.6026 393.856 68.3786 394.112C68.1546 394.336 67.7706 394.448 67.2266 394.448H61.3226ZM72.6026 381.632H81.5306L77.0186 368.96L72.6026 381.632ZM98.802 394.448C98.482 394.448 98.194 394.336 97.938 394.112C97.714 393.888 97.602 393.6 97.602 393.248V362.048C97.602 361.696 97.714 361.408 97.938 361.184C98.194 360.96 98.482 360.848 98.802 360.848H103.986C104.498 360.848 104.882 360.992 105.138 361.28C105.426 361.536 105.602 361.744 105.666 361.904L114.114 377.072L122.562 361.904C122.658 361.744 122.818 361.536 123.042 361.28C123.298 360.992 123.698 360.848 124.242 360.848H129.378C129.73 360.848 130.018 360.96 130.242 361.184C130.498 361.408 130.626 361.696 130.626 362.048V393.248C130.626 393.6 130.498 393.888 130.242 394.112C130.018 394.336 129.73 394.448 129.378 394.448H123.666C123.314 394.448 123.01 394.336 122.754 394.112C122.53 393.888 122.418 393.6 122.418 393.248V375.248L116.994 385.28C116.866 385.568 116.674 385.824 116.418 386.048C116.162 386.272 115.81 386.384 115.362 386.384H112.866C112.418 386.384 112.066 386.272 111.81 386.048C111.554 385.824 111.346 385.568 111.186 385.28L105.762 375.248V393.248C105.762 393.6 105.65 393.888 105.426 394.112C105.202 394.336 104.914 394.448 104.562 394.448H98.802Z" fill="#A2B06E"/>
<path d="M168.932 397.568C168.42 397.568 168.02 397.424 167.732 397.136C167.476 396.88 167.268 396.656 167.108 396.464L165.476 394.304C164.228 394.72 162.804 394.928 161.204 394.928C158.26 394.928 155.7 394.448 153.524 393.488C151.38 392.528 149.684 391.088 148.436 389.168C147.22 387.216 146.564 384.784 146.468 381.872C146.436 380.496 146.42 379.12 146.42 377.744C146.42 376.368 146.436 374.976 146.468 373.568C146.564 370.688 147.236 368.272 148.484 366.32C149.732 364.336 151.444 362.848 153.62 361.856C155.796 360.864 158.324 360.368 161.204 360.368C164.116 360.368 166.66 360.864 168.836 361.856C171.012 362.848 172.724 364.336 173.972 366.32C175.22 368.272 175.892 370.688 175.988 373.568C176.052 374.976 176.084 376.368 176.084 377.744C176.084 379.12 176.052 380.496 175.988 381.872C175.796 385.84 174.644 388.912 172.532 391.088L176.036 396.08C176.068 396.112 176.1 396.176 176.132 396.272C176.164 396.368 176.18 396.464 176.18 396.56C176.212 396.816 176.132 397.04 175.94 397.232C175.748 397.456 175.508 397.568 175.22 397.568H168.932ZM161.204 388.016C162.9 388.016 164.276 387.504 165.332 386.48C166.42 385.456 166.996 383.824 167.06 381.584C167.124 380.176 167.156 378.848 167.156 377.6C167.156 376.352 167.124 375.056 167.06 373.712C167.028 372.208 166.756 370.992 166.244 370.064C165.732 369.104 165.044 368.4 164.18 367.952C163.316 367.504 162.324 367.28 161.204 367.28C160.116 367.28 159.14 367.504 158.276 367.952C157.412 368.4 156.724 369.104 156.212 370.064C155.7 370.992 155.428 372.208 155.396 373.712C155.364 375.056 155.348 376.352 155.348 377.6C155.348 378.848 155.364 380.176 155.396 381.584C155.46 383.824 156.02 385.456 157.076 386.48C158.164 387.504 159.54 388.016 161.204 388.016ZM195.76 394.928C192.88 394.928 190.352 394.464 188.176 393.536C186.032 392.576 184.368 391.12 183.184 389.168C182 387.184 181.408 384.672 181.408 381.632V362.048C181.408 361.696 181.52 361.408 181.744 361.184C181.968 360.96 182.256 360.848 182.608 360.848H188.8C189.152 360.848 189.44 360.96 189.664 361.184C189.888 361.408 190 361.696 190 362.048V381.584C190 383.664 190.496 385.232 191.488 386.288C192.512 387.312 193.936 387.824 195.76 387.824C197.552 387.824 198.944 387.312 199.936 386.288C200.96 385.232 201.472 383.664 201.472 381.584V362.048C201.472 361.696 201.584 361.408 201.808 361.184C202.064 360.96 202.352 360.848 202.672 360.848H208.912C209.232 360.848 209.504 360.96 209.728 361.184C209.984 361.408 210.112 361.696 210.112 362.048V381.632C210.112 384.672 209.52 387.184 208.336 389.168C207.152 391.12 205.488 392.576 203.344 393.536C201.2 394.464 198.672 394.928 195.76 394.928ZM217.677 394.448C217.325 394.448 217.037 394.336 216.813 394.112C216.589 393.888 216.477 393.6 216.477 393.248V362.048C216.477 361.696 216.589 361.408 216.813 361.184C217.037 360.96 217.325 360.848 217.677 360.848H240.093C240.445 360.848 240.733 360.96 240.957 361.184C241.181 361.408 241.293 361.696 241.293 362.048V366.56C241.293 366.912 241.181 367.2 240.957 367.424C240.733 367.648 240.445 367.76 240.093 367.76H224.781V374.24H239.037C239.389 374.24 239.677 374.368 239.901 374.624C240.125 374.848 240.237 375.136 240.237 375.488V379.664C240.237 379.984 240.125 380.272 239.901 380.528C239.677 380.752 239.389 380.864 239.037 380.864H224.781V387.536H240.477C240.829 387.536 241.117 387.648 241.341 387.872C241.565 388.096 241.677 388.384 241.677 388.736V393.248C241.677 393.6 241.565 393.888 241.341 394.112C241.117 394.336 240.829 394.448 240.477 394.448H217.677ZM259.661 394.928C256.461 394.928 253.805 394.48 251.693 393.584C249.581 392.656 247.981 391.456 246.893 389.984C245.805 388.512 245.229 386.944 245.165 385.28C245.165 385.024 245.261 384.8 245.453 384.608C245.677 384.384 245.933 384.272 246.221 384.272H252.269C252.717 384.272 253.053 384.352 253.277 384.512C253.533 384.672 253.757 384.88 253.949 385.136C254.205 385.616 254.557 386.08 255.005 386.528C255.485 386.976 256.093 387.344 256.829 387.632C257.597 387.888 258.541 388.016 259.661 388.016C261.517 388.016 262.909 387.728 263.837 387.152C264.797 386.576 265.277 385.792 265.277 384.8C265.277 384.096 265.021 383.52 264.509 383.072C263.997 382.592 263.165 382.176 262.013 381.824C260.893 381.44 259.389 381.056 257.501 380.672C255.069 380.16 252.989 379.504 251.261 378.704C249.565 377.872 248.269 376.8 247.373 375.488C246.477 374.144 246.029 372.48 246.029 370.496C246.029 368.544 246.573 366.8 247.661 365.264C248.781 363.728 250.333 362.528 252.317 361.664C254.301 360.8 256.653 360.368 259.373 360.368C261.581 360.368 263.517 360.656 265.181 361.232C266.877 361.808 268.301 362.576 269.453 363.536C270.605 364.496 271.469 365.52 272.045 366.608C272.653 367.664 272.973 368.704 273.005 369.728C273.005 369.984 272.909 370.224 272.717 370.448C272.525 370.64 272.285 370.736 271.997 370.736H265.661C265.309 370.736 265.005 370.672 264.749 370.544C264.493 370.416 264.269 370.208 264.077 369.92C263.885 369.216 263.373 368.608 262.541 368.096C261.741 367.552 260.685 367.28 259.373 367.28C257.965 367.28 256.861 367.536 256.061 368.048C255.293 368.528 254.909 369.28 254.909 370.304C254.909 370.944 255.117 371.504 255.533 371.984C255.981 372.464 256.701 372.88 257.693 373.232C258.717 373.584 260.109 373.952 261.869 374.336C264.781 374.88 267.133 375.568 268.925 376.4C270.717 377.2 272.029 378.256 272.861 379.568C273.693 380.848 274.109 382.464 274.109 384.416C274.109 386.592 273.485 388.48 272.237 390.08C271.021 391.648 269.325 392.848 267.149 393.68C264.973 394.512 262.477 394.928 259.661 394.928ZM287.178 394.448C286.826 394.448 286.538 394.336 286.314 394.112C286.09 393.888 285.978 393.6 285.978 393.248V368.384H277.434C277.082 368.384 276.794 368.272 276.57 368.048C276.346 367.792 276.234 367.504 276.234 367.184V362.048C276.234 361.696 276.346 361.408 276.57 361.184C276.794 360.96 277.082 360.848 277.434 360.848H303.258C303.61 360.848 303.898 360.96 304.122 361.184C304.346 361.408 304.458 361.696 304.458 362.048V367.184C304.458 367.504 304.346 367.792 304.122 368.048C303.898 368.272 303.61 368.384 303.258 368.384H294.714V393.248C294.714 393.6 294.602 393.888 294.378 394.112C294.154 394.336 293.866 394.448 293.514 394.448H287.178Z" fill="#C8733B"/>
<defs>
<filter id="filter0_d_158_107" x="63.524" y="0" width="177.936" height="142.633" filterUnits="userSpaceOnUse" color-interpolation-filters="sRGB">
<feFlood flood-opacity="0" result="BackgroundImageFix"/>
<feColorMatrix in="SourceAlpha" type="matrix" values="0 0 0 0 0 0 0 0 0 0 0 0 0 0 0 0 0 0 127 0" result="hardAlpha"/>
<feOffset dy="4"/>
<feGaussianBlur stdDeviation="2"/>
<feComposite in2="hardAlpha" operator="out"/>
<feColorMatrix type="matrix" values="0 0 0 0 0 0 0 0 0 0 0 0 0 0 0 0 0 0 0.25 0"/>
<feBlend mode="normal" in2="BackgroundImageFix" result="effect1_dropShadow_158_107"/>
<feBlend mode="normal" in="SourceGraphic" in2="effect1_dropShadow_158_107" result="shape"/>
</filter>
<filter id="filter1_d_158_107" x="222.992" y="105.633" width="50" height="51" filterUnits="userSpaceOnUse" color-interpolation-filters="sRGB">
<feFlood flood-opacity="0" result="BackgroundImageFix"/>
<feColorMatrix in="SourceAlpha" type="matrix" values="0 0 0 0 0 0 0 0 0 0 0 0 0 0 0 0 0 0 127 0" result="hardAlpha"/>
<feOffset dy="4"/>
<feGaussianBlur stdDeviation="2"/>
<feComposite in2="hardAlpha" operator="out"/>
<feColorMatrix type="matrix" values="0 0 0 0 0 0 0 0 0 0 0 0 0 0 0 0 0 0 0.25 0"/>
<feBlend mode="normal" in2="BackgroundImageFix" result="effect1_dropShadow_158_107"/>
<feBlend mode="normal" in="SourceGraphic" in2="effect1_dropShadow_158_107" result="shape"/>
</filter>
<filter id="filter2_d_158_107" x="38.9922" y="111.633" width="47" height="48" filterUnits="userSpaceOnUse" color-interpolation-filters="sRGB">
<feFlood flood-opacity="0" result="BackgroundImageFix"/>
<feColorMatrix in="SourceAlpha" type="matrix" values="0 0 0 0 0 0 0 0 0 0 0 0 0 0 0 0 0 0 127 0" result="hardAlpha"/>
<feOffset dy="4"/>
<feGaussianBlur stdDeviation="2"/>
<feComposite in2="hardAlpha" operator="out"/>
<feColorMatrix type="matrix" values="0 0 0 0 0 0 0 0 0 0 0 0 0 0 0 0 0 0 0.25 0"/>
<feBlend mode="normal" in2="BackgroundImageFix" result="effect1_dropShadow_158_107"/>
<feBlend mode="normal" in="SourceGraphic" in2="effect1_dropShadow_158_107" result="shape"/>
</filter>
<filter id="filter3_d_158_107" x="126.992" y="115.633" width="52" height="51" filterUnits="userSpaceOnUse" color-interpolation-filters="sRGB">
<feFlood flood-opacity="0" result="BackgroundImageFix"/>
<feColorMatrix in="SourceAlpha" type="matrix" values="0 0 0 0 0 0 0 0 0 0 0 0 0 0 0 0 0 0 127 0" result="hardAlpha"/>
<feOffset dy="4"/>
<feGaussianBlur stdDeviation="2"/>
<feComposite in2="hardAlpha" operator="out"/>
<feColorMatrix type="matrix" values="0 0 0 0 0 0 0 0 0 0 0 0 0 0 0 0 0 0 0.25 0"/>
<feBlend mode="normal" in2="BackgroundImageFix" result="effect1_dropShadow_158_107"/>
<feBlend mode="normal" in="SourceGraphic" in2="effect1_dropShadow_158_107" result="shape"/>
</filter>
<linearGradient id="paint0_linear_158_107" x1="153.274" y1="0" x2="153.274" y2="133" gradientUnits="userSpaceOnUse">
<stop stop-color="#C9773D"/>
<stop offset="1" stop-color="#603620"/>
</linearGradient>
<linearGradient id="paint1_linear_158_107" x1="182.731" y1="14.2031" x2="174.748" y2="119.863" gradientUnits="userSpaceOnUse">
<stop offset="0.67" stop-color="#B56B37"/>
<stop offset="1" stop-color="#603620"/>
</linearGradient>
<linearGradient id="paint2_linear_158_107" x1="122.416" y1="14.1564" x2="130.23" y2="119.95" gradientUnits="userSpaceOnUse">
<stop offset="0.67" stop-color="#C9773E"/>
<stop offset="1" stop-color="#603620"/>
</linearGradient>
<linearGradient id="paint3_linear_158_107" x1="246.088" y1="134.633" x2="246.088" y2="296.322" gradientUnits="userSpaceOnUse">
<stop stop-color="#B56B37"/>
<stop offset="1" stop-color="#603620"/>
</linearGradient>
<linearGradient id="paint4_linear_158_107" x1="247.992" y1="105.633" x2="247.992" y2="148.633" gradientUnits="userSpaceOnUse">
<stop stop-color="#B56B37"/>
<stop offset="1" stop-color="#603620"/>
</linearGradient>
<linearGradient id="paint5_linear_158_107" x1="58.896" y1="296.511" x2="58.896" y2="134.822" gradientUnits="userSpaceOnUse">
<stop stop-color="#B5C37C"/>
<stop offset="1" stop-color="#63703D"/>
</linearGradient>
<linearGradient id="paint6_linear_158_107" x1="62.4922" y1="111.633" x2="62.4922" y2="151.633" gradientUnits="userSpaceOnUse">
<stop stop-color="#63703D"/>
<stop offset="1" stop-color="#B5C37C"/>
</linearGradient>
<linearGradient id="paint7_linear_158_107" x1="162.141" y1="140.822" x2="162.141" y2="328.448" gradientUnits="userSpaceOnUse">
<stop stop-color="#B5C37C"/>
<stop offset="1" stop-color="#63703D"/>
</linearGradient>
<linearGradient id="paint8_linear_158_107" x1="162.141" y1="140.822" x2="162.141" y2="328.448" gradientUnits="userSpaceOnUse">
<stop stop-color="#B5C37C"/>
<stop offset="1" stop-color="#63703D"/>
</linearGradient>
<linearGradient id="paint9_linear_158_107" x1="143.64" y1="140.822" x2="143.64" y2="328.448" gradientUnits="userSpaceOnUse">
<stop stop-color="#DD8140"/>
<stop offset="1" stop-color="#9A5531"/>
</linearGradient>
<linearGradient id="paint10_linear_158_107" x1="143.64" y1="140.822" x2="143.64" y2="328.448" gradientUnits="userSpaceOnUse">
<stop stop-color="#DD8140"/>
<stop offset="1" stop-color="#9A5531"/>
</linearGradient>
<linearGradient id="paint11_linear_158_107" x1="152.992" y1="115.633" x2="152.992" y2="158.633" gradientUnits="userSpaceOnUse">
<stop stop-color="#F3E4BD"/>
<stop offset="1" stop-color="#B56B37"/>
</linearGradient>
</defs>
</svg>
